<svg xmlns="http://www.w3.org/2000/svg" xmlns:xlink="http://www.w3.org/1999/xlink" width="1000" zoomAndPan="magnify" viewBox="0 0 750 749.999995" height="1000" preserveAspectRatio="xMidYMid meet" version="1.0"><defs><clipPath id="31e6ef8a31"><path d="M 3 79.710938 L 747 79.710938 L 747 669.960938 L 3 669.960938 Z M 3 79.710938 " clip-rule="nonzero"/></clipPath></defs><g clip-path="url(#31e6ef8a31)"><path fill="#004aad" d="M 368.042969 472.722656 C 372.144531 469.085938 378.425781 469.234375 382.351562 473.160156 L 433.230469 524.042969 C 439.8125 530.632812 435.15625 541.886719 425.835938 541.886719 L 324.082031 541.886719 C 314.765625 541.886719 310.105469 530.632812 316.691406 524.042969 L 367.570312 473.160156 C 367.722656 473.011719 367.882812 472.863281 368.042969 472.722656 M 735.773438 79.726562 L 64.714844 79.726562 C 58.941406 79.726562 54.265625 84.398438 54.265625 90.171875 L 128.402344 197.644531 C 128.402344 203.425781 133.082031 208.105469 138.851562 208.105469 L 425.835938 208.105469 C 435.15625 208.105469 439.8125 219.359375 433.230469 225.949219 L 6.757812 652.421875 C 0.171875 659.007812 4.835938 670.261719 14.148438 670.261719 L 735.773438 670.261719 C 745.085938 670.261719 749.75 659.007812 743.164062 652.421875 L 473.125 382.386719 C 469.183594 378.441406 469.050781 372.105469 472.742188 368.007812 L 472.757812 367.988281 C 472.875 367.867188 473 367.738281 473.125 367.605469 L 743.164062 97.570312 C 749.75 90.984375 745.085938 79.726562 735.773438 79.726562 " fill-opacity="1" fill-rule="nonzero"/></g><path fill="#ffffff" d="M 504.359375 413.609375 L 473.125 382.386719 L 504.40625 413.5625 L 504.359375 413.609375 " fill-opacity="1" fill-rule="nonzero"/><path fill="#242254" d="M 413.628906 504.347656 L 382.351562 473.160156 C 380.308594 471.128906 377.640625 470.105469 374.960938 470.105469 C 372.488281 470.105469 370.011719 470.976562 368.042969 472.722656 L 472.742188 368.007812 C 470.96875 369.984375 470.070312 372.484375 470.070312 374.980469 C 470.066406 377.664062 471.082031 380.34375 473.125 382.386719 L 504.359375 413.609375 L 413.628906 504.347656 " fill-opacity="1" fill-rule="nonzero"/></svg>